<mxfile host="app.diagrams.net" modified="2024-07-21T12:47:11.078Z" agent="Mozilla/5.0 (Macintosh; Intel Mac OS X 10_15_7) AppleWebKit/537.36 (KHTML, like Gecko) Chrome/126.0.0.0 Safari/537.36 Edg/126.0.0.0" version="24.7.1" etag="MgQm5jHbpex79fmEliRv" type="github">
  <diagram name="第 1 页" id="8e_2WPQQHfL_l3S4bKV9">
    <mxGraphModel>
      <root>
        <mxCell id="0" />
        <mxCell id="1" parent="0" />
      </root>
    </mxGraphModel>
  </diagram>
</mxfile>
